<?xml version="1.0"?><svg xmlns="http://www.w3.org/2000/svg" xmlns:xlink="http://www.w3.org/1999/xlink" viewBox="79.62 205.61 364.53 97.86" preserveAspectRatio="xMidYMid" width="100%" height="100%"><clipPath id="7572"><rect x="0.3" y="0.3" width="719.4" height="539.4" /></clipPath><g id="drawing"><rect x="79.62" y="205.61" width="100%" height="100%" fill="rgb(255, 255, 255)" /><g id="page" clip-path="url(#7572)"><g><text xml:space="preserve" text-anchor="start" text-rendering="geometricPrecision"><tspan x="119.64" y="276.59" font-family="Arial" font-size="10" fill="rgb(0, 0, 0)">H</tspan><tspan x="119.64" y="293.66" font-family="Arial" font-size="10" fill="rgb(0, 0, 0)">N</tspan></text></g><g id="Solid"><path d="M111.34 289.72 L111.34 289.72 L111.58 289.48 L111.93 289.59 L116.21 302.87 L115.99 303.17 L115.77 303.47 Z" stroke="rgb(0, 0, 0)" stroke-width="0" fill-rule="evenodd" stroke-linejoin="miter" fill="rgb(0, 0, 0)" shape-rendering="geometricPrecision" /><line x1="114.62" y1="290.47" x2="117.88" y2="300.58" stroke="rgb(0, 0, 0)" stroke-width="0.6" shape-rendering="auto" /></g><g id="Solid"><path d="M115.77 303.47 L115.77 303.47 L115.99 303.17 L116.21 302.87 L130.15 302.85 L130.37 303.15 L130.59 303.45 Z" stroke="rgb(0, 0, 0)" stroke-width="0" fill-rule="evenodd" stroke-linejoin="miter" fill="rgb(0, 0, 0)" shape-rendering="geometricPrecision" /></g><g id="Solid"><path d="M130.59 303.45 L130.59 303.45 L130.37 303.15 L130.15 302.85 L134.5 289.57 L134.85 289.46 L135.09 289.69 Z" stroke="rgb(0, 0, 0)" stroke-width="0" fill-rule="evenodd" stroke-linejoin="miter" fill="rgb(0, 0, 0)" shape-rendering="geometricPrecision" /><line x1="128.49" y1="300.56" x2="131.8" y2="290.44" stroke="rgb(0, 0, 0)" stroke-width="0.6" shape-rendering="auto" /></g><g id="Solid"><path d="M134.9 289.12 L134.9 289.12 L134.85 289.46 L134.5 289.57 L126.29 283.57 L126.47 283.33 L126.65 283.09 Z" stroke="rgb(0, 0, 0)" stroke-width="0" fill-rule="evenodd" stroke-linejoin="miter" fill="rgb(0, 0, 0)" shape-rendering="geometricPrecision" /></g><g id="Solid"><path d="M119.83 283.09 L119.83 283.09 L120.01 283.33 L120.19 283.57 L111.93 289.59 L111.58 289.48 L111.53 289.15 Z" stroke="rgb(0, 0, 0)" stroke-width="0" fill-rule="evenodd" stroke-linejoin="miter" fill="rgb(0, 0, 0)" shape-rendering="geometricPrecision" /></g><g id="Solid"><path d="M111.53 289.15 L111.53 289.15 L111.58 289.48 L111.34 289.72 L98.17 285.57 L97.87 285.16 L98.11 284.92 Z" stroke="rgb(0, 0, 0)" stroke-width="0" fill-rule="evenodd" stroke-linejoin="miter" fill="rgb(0, 0, 0)" shape-rendering="geometricPrecision" /></g><g id="Solid"><path d="M135.09 289.69 L135.09 289.69 L134.85 289.46 L134.9 289.12 L148.19 284.47 L148.42 284.71 L148.12 285.13 Z" stroke="rgb(0, 0, 0)" stroke-width="0" fill-rule="evenodd" stroke-linejoin="miter" fill="rgb(0, 0, 0)" shape-rendering="geometricPrecision" /></g><g><text xml:space="preserve" text-anchor="end" text-rendering="geometricPrecision"><tspan x="149.17" y="263.09" font-family="Arial" font-size="10" fill="rgb(0, 0, 0)">HN</tspan></text></g><g id="Solid"><path d="M153.99 271.32 L153.99 271.32 L153.77 271.07 L153.89 270.72 L167.62 266.82 L167.92 267.05 L168.22 267.28 Z" stroke="rgb(0, 0, 0)" stroke-width="0" fill-rule="evenodd" stroke-linejoin="miter" fill="rgb(0, 0, 0)" shape-rendering="geometricPrecision" /><line x1="154.87" y1="268" x2="165.27" y2="265.05" stroke="rgb(0, 0, 0)" stroke-width="0.6" shape-rendering="auto" /></g><g id="Solid"><path d="M168.22 267.28 L168.22 267.28 L167.92 267.05 L167.62 266.82 L167.63 252.86 L167.93 252.65 L168.23 252.44 Z" stroke="rgb(0, 0, 0)" stroke-width="0" fill-rule="evenodd" stroke-linejoin="miter" fill="rgb(0, 0, 0)" shape-rendering="geometricPrecision" /></g><g id="Solid"><path d="M168.23 252.44 L168.23 252.44 L167.93 252.65 L167.63 252.86 L154.45 248.17 L154.35 247.81 L154.59 247.58 Z" stroke="rgb(0, 0, 0)" stroke-width="0" fill-rule="evenodd" stroke-linejoin="miter" fill="rgb(0, 0, 0)" shape-rendering="geometricPrecision" /><line x1="165.33" y1="254.48" x2="155.25" y2="250.89" stroke="rgb(0, 0, 0)" stroke-width="0.6" shape-rendering="auto" /></g><g id="Solid"><path d="M154.02 247.75 L154.02 247.75 L154.35 247.81 L154.45 248.17 L149.25 254.92 L149.01 254.73 L148.77 254.55 Z" stroke="rgb(0, 0, 0)" stroke-width="0" fill-rule="evenodd" stroke-linejoin="miter" fill="rgb(0, 0, 0)" shape-rendering="geometricPrecision" /></g><g id="Solid"><path d="M148.93 264.59 L148.93 264.59 L149.18 264.42 L149.42 264.25 L153.89 270.72 L153.77 271.07 L153.43 271.11 Z" stroke="rgb(0, 0, 0)" stroke-width="0" fill-rule="evenodd" stroke-linejoin="miter" fill="rgb(0, 0, 0)" shape-rendering="geometricPrecision" /></g><g id="Solid"><path d="M154.59 247.58 L154.59 247.58 L154.35 247.81 L154.02 247.75 L149.72 234.35 L149.96 234.12 L150.37 234.42 Z" stroke="rgb(0, 0, 0)" stroke-width="0" fill-rule="evenodd" stroke-linejoin="miter" fill="rgb(0, 0, 0)" shape-rendering="geometricPrecision" /></g><g id="Solid"><path d="M148.86 284.41 L148.86 284.41 L148.42 284.71 L148.19 284.47 L153.43 271.11 L153.77 271.07 L153.99 271.32 Z" stroke="rgb(0, 0, 0)" stroke-width="0" fill-rule="evenodd" stroke-linejoin="miter" fill="rgb(0, 0, 0)" shape-rendering="geometricPrecision" /></g><g><text xml:space="preserve" text-anchor="start" text-rendering="geometricPrecision"><tspan x="120.54" y="241.57" font-family="Arial" font-size="10" fill="rgb(0, 0, 0)">N</tspan><tspan x="120.54" y="258.64" font-family="Arial" font-size="10" fill="rgb(0, 0, 0)">H</tspan></text></g><g id="Solid"><path d="M135.97 228.84 L135.97 228.84 L135.73 229.07 L135.38 228.96 L131.02 215.85 L131.24 215.55 L131.46 215.25 Z" stroke="rgb(0, 0, 0)" stroke-width="0" fill-rule="evenodd" stroke-linejoin="miter" fill="rgb(0, 0, 0)" shape-rendering="geometricPrecision" /><line x1="132.71" y1="228.12" x2="129.39" y2="218.11" stroke="rgb(0, 0, 0)" stroke-width="0.6" shape-rendering="auto" /></g><g id="Solid"><path d="M131.46 215.25 L131.46 215.25 L131.24 215.55 L131.02 215.85 L117.05 215.85 L116.83 215.55 L116.61 215.25 Z" stroke="rgb(0, 0, 0)" stroke-width="0" fill-rule="evenodd" stroke-linejoin="miter" fill="rgb(0, 0, 0)" shape-rendering="geometricPrecision" /></g><g id="Solid"><path d="M116.61 215.25 L116.61 215.25 L116.83 215.55 L117.05 215.85 L112.81 229.16 L112.46 229.28 L112.22 229.05 Z" stroke="rgb(0, 0, 0)" stroke-width="0" fill-rule="evenodd" stroke-linejoin="miter" fill="rgb(0, 0, 0)" shape-rendering="geometricPrecision" /><line x1="118.73" y1="218.14" x2="115.5" y2="228.27" stroke="rgb(0, 0, 0)" stroke-width="0.6" shape-rendering="auto" /></g><g id="Solid"><path d="M112.41 229.62 L112.41 229.62 L112.46 229.28 L112.81 229.16 L120.18 234.45 L120 234.7 L119.83 234.94 Z" stroke="rgb(0, 0, 0)" stroke-width="0" fill-rule="evenodd" stroke-linejoin="miter" fill="rgb(0, 0, 0)" shape-rendering="geometricPrecision" /></g><g id="Solid"><path d="M128.46 234.84 L128.46 234.84 L128.28 234.59 L128.11 234.35 L135.38 228.96 L135.73 229.07 L135.78 229.41 Z" stroke="rgb(0, 0, 0)" stroke-width="0" fill-rule="evenodd" stroke-linejoin="miter" fill="rgb(0, 0, 0)" shape-rendering="geometricPrecision" /></g><g id="Solid"><path d="M112.22 229.05 L112.22 229.05 L112.46 229.28 L112.41 229.62 L99.16 234.37 L98.93 234.13 L99.23 233.7 Z" stroke="rgb(0, 0, 0)" stroke-width="0" fill-rule="evenodd" stroke-linejoin="miter" fill="rgb(0, 0, 0)" shape-rendering="geometricPrecision" /></g><g><text xml:space="preserve" text-anchor="start" text-rendering="geometricPrecision"><tspan x="98.38" y="263.52" font-family="Arial" font-size="10" fill="rgb(0, 0, 0)">NH</tspan></text></g><g id="Solid"><path d="M93.46 247.57 L93.46 247.57 L93.69 247.81 L93.57 248.16 L80.22 252.18 L79.92 251.96 L79.62 251.74 Z" stroke="rgb(0, 0, 0)" stroke-width="0" fill-rule="evenodd" stroke-linejoin="miter" fill="rgb(0, 0, 0)" shape-rendering="geometricPrecision" /><line x1="92.65" y1="250.83" x2="82.51" y2="253.88" stroke="rgb(0, 0, 0)" stroke-width="0.6" shape-rendering="auto" /></g><g id="Solid"><path d="M79.62 251.74 L79.62 251.74 L79.92 251.96 L80.22 252.18 L80.22 266.15 L79.92 266.36 L79.62 266.57 Z" stroke="rgb(0, 0, 0)" stroke-width="0" fill-rule="evenodd" stroke-linejoin="miter" fill="rgb(0, 0, 0)" shape-rendering="geometricPrecision" /></g><g id="Solid"><path d="M79.62 266.57 L79.62 266.57 L79.92 266.36 L80.22 266.15 L93.17 270.72 L93.28 271.08 L93.04 271.31 Z" stroke="rgb(0, 0, 0)" stroke-width="0" fill-rule="evenodd" stroke-linejoin="miter" fill="rgb(0, 0, 0)" shape-rendering="geometricPrecision" /><line x1="82.47" y1="264.56" x2="92.37" y2="268.06" stroke="rgb(0, 0, 0)" stroke-width="0.6" shape-rendering="auto" /></g><g id="Solid"><path d="M93.61 271.14 L93.61 271.14 L93.28 271.08 L93.17 270.72 L97.99 264.37 L98.23 264.56 L98.47 264.74 Z" stroke="rgb(0, 0, 0)" stroke-width="0" fill-rule="evenodd" stroke-linejoin="miter" fill="rgb(0, 0, 0)" shape-rendering="geometricPrecision" /></g><g id="Solid"><path d="M99.05 254.92 L99.05 254.92 L98.8 255.09 L98.55 255.26 L93.57 248.16 L93.69 247.81 L94.03 247.77 Z" stroke="rgb(0, 0, 0)" stroke-width="0" fill-rule="evenodd" stroke-linejoin="miter" fill="rgb(0, 0, 0)" shape-rendering="geometricPrecision" /></g><g id="Solid"><path d="M98.49 234.43 L98.49 234.43 L98.93 234.13 L99.16 234.37 L94.03 247.77 L93.69 247.81 L93.46 247.57 Z" stroke="rgb(0, 0, 0)" stroke-width="0" fill-rule="evenodd" stroke-linejoin="miter" fill="rgb(0, 0, 0)" shape-rendering="geometricPrecision" /></g><g id="Solid"><path d="M149.66 233.7 L149.66 233.7 L149.96 234.12 L149.72 234.35 L135.78 229.41 L135.73 229.07 L135.97 228.84 Z" stroke="rgb(0, 0, 0)" stroke-width="0" fill-rule="evenodd" stroke-linejoin="miter" fill="rgb(0, 0, 0)" shape-rendering="geometricPrecision" /></g><g id="Solid"><path d="M98.11 284.92 L98.11 284.92 L97.87 285.16 L97.46 284.86 L93.04 271.31 L93.28 271.08 L93.61 271.14 Z" stroke="rgb(0, 0, 0)" stroke-width="0" fill-rule="evenodd" stroke-linejoin="miter" fill="rgb(0, 0, 0)" shape-rendering="geometricPrecision" /></g><g id="Solid"><path d="M99.23 233.7 L99.23 233.7 L98.93 234.13 L98.63 233.83 L98.63 219.73 L98.93 219.73 L99.23 219.73 Z" stroke="rgb(0, 0, 0)" stroke-width="0" fill-rule="evenodd" stroke-linejoin="miter" fill="rgb(0, 0, 0)" shape-rendering="geometricPrecision" /></g><g id="Solid"><path d="M98.63 233.83 L98.63 233.83 L98.93 234.13 L98.49 234.43 L84.53 234.43 L84.53 234.13 L84.53 233.83 Z" stroke="rgb(0, 0, 0)" stroke-width="0" fill-rule="evenodd" stroke-linejoin="miter" fill="rgb(0, 0, 0)" shape-rendering="geometricPrecision" /></g><g id="Solid"><path d="M97.46 284.86 L97.46 284.86 L97.87 285.16 L97.57 285.46 L83.47 285.46 L83.47 285.16 L83.47 284.86 Z" stroke="rgb(0, 0, 0)" stroke-width="0" fill-rule="evenodd" stroke-linejoin="miter" fill="rgb(0, 0, 0)" shape-rendering="geometricPrecision" /></g><g id="Solid"><path d="M97.57 285.46 L97.57 285.46 L97.87 285.16 L98.17 285.57 L98.17 299.56 L97.87 299.56 L97.57 299.56 Z" stroke="rgb(0, 0, 0)" stroke-width="0" fill-rule="evenodd" stroke-linejoin="miter" fill="rgb(0, 0, 0)" shape-rendering="geometricPrecision" /></g><g id="Solid"><path d="M148.12 285.13 L148.12 285.13 L148.42 284.71 L148.72 285.01 L148.72 299.11 L148.42 299.11 L148.12 299.11 Z" stroke="rgb(0, 0, 0)" stroke-width="0" fill-rule="evenodd" stroke-linejoin="miter" fill="rgb(0, 0, 0)" shape-rendering="geometricPrecision" /></g><g id="Solid"><path d="M148.72 285.01 L148.72 285.01 L148.42 284.71 L148.86 284.41 L162.82 284.41 L162.82 284.71 L162.82 285.01 Z" stroke="rgb(0, 0, 0)" stroke-width="0" fill-rule="evenodd" stroke-linejoin="miter" fill="rgb(0, 0, 0)" shape-rendering="geometricPrecision" /></g><g id="Solid"><path d="M150.26 233.82 L150.26 233.82 L149.96 234.12 L149.66 233.7 L149.66 219.72 L149.96 219.72 L150.26 219.72 Z" stroke="rgb(0, 0, 0)" stroke-width="0" fill-rule="evenodd" stroke-linejoin="miter" fill="rgb(0, 0, 0)" shape-rendering="geometricPrecision" /></g><g id="Solid"><path d="M150.37 234.42 L150.37 234.42 L149.96 234.12 L150.26 233.82 L164.19 233.82 L164.36 234.12 L164.19 234.42 Z" stroke="rgb(0, 0, 0)" stroke-width="0" fill-rule="evenodd" stroke-linejoin="miter" fill="rgb(0, 0, 0)" shape-rendering="geometricPrecision" /></g><g id="Solid"><path d="M164.19 234.42 L164.19 234.42 L164.36 234.12 L164.71 234.12 L171.73 246.29 L171.56 246.59 L171.39 246.89 Z" stroke="rgb(0, 0, 0)" stroke-width="0" fill-rule="evenodd" stroke-linejoin="miter" fill="rgb(0, 0, 0)" shape-rendering="geometricPrecision" /><line x1="167.35" y1="234.12" x2="173.06" y2="244" stroke="rgb(0, 0, 0)" stroke-width="0.6" shape-rendering="auto" /></g><g id="Solid"><path d="M171.39 246.89 L171.39 246.89 L171.56 246.59 L171.73 246.29 L185.79 246.29 L185.96 246.59 L186.13 246.89 Z" stroke="rgb(0, 0, 0)" stroke-width="0" fill-rule="evenodd" stroke-linejoin="miter" fill="rgb(0, 0, 0)" shape-rendering="geometricPrecision" /></g><g id="Solid"><path d="M186.13 246.89 L186.13 246.89 L185.96 246.59 L185.79 246.29 L192.81 234.12 L193.16 234.12 L193.33 234.42 Z" stroke="rgb(0, 0, 0)" stroke-width="0" fill-rule="evenodd" stroke-linejoin="miter" fill="rgb(0, 0, 0)" shape-rendering="geometricPrecision" /><line x1="184.46" y1="244" x2="190.17" y2="234.12" stroke="rgb(0, 0, 0)" stroke-width="0.6" shape-rendering="auto" /></g><g id="Solid"><path d="M193.33 233.82 L193.33 233.82 L193.16 234.12 L192.81 234.12 L185.79 221.95 L185.96 221.65 L186.13 221.35 Z" stroke="rgb(0, 0, 0)" stroke-width="0" fill-rule="evenodd" stroke-linejoin="miter" fill="rgb(0, 0, 0)" shape-rendering="geometricPrecision" /></g><g id="Solid"><path d="M186.13 221.35 L186.13 221.35 L185.96 221.65 L185.79 221.95 L171.73 221.95 L171.56 221.65 L171.39 221.35 Z" stroke="rgb(0, 0, 0)" stroke-width="0" fill-rule="evenodd" stroke-linejoin="miter" fill="rgb(0, 0, 0)" shape-rendering="geometricPrecision" /><line x1="184.46" y1="224.24" x2="173.06" y2="224.24" stroke="rgb(0, 0, 0)" stroke-width="0.6" shape-rendering="auto" /></g><g id="Solid"><path d="M171.39 221.35 L171.39 221.35 L171.56 221.65 L171.73 221.95 L164.71 234.12 L164.36 234.12 L164.19 233.82 Z" stroke="rgb(0, 0, 0)" stroke-width="0" fill-rule="evenodd" stroke-linejoin="miter" fill="rgb(0, 0, 0)" shape-rendering="geometricPrecision" /></g><g><text xml:space="preserve" text-anchor="start" text-rendering="geometricPrecision"><tspan x="203.66" y="238.02" font-family="Arial" font-size="10" fill="rgb(0, 0, 0)">O</tspan></text></g><g id="Solid"><path d="M193.33 234.42 L193.33 234.42 L193.16 234.12 L193.33 233.82 L202.6 233.82 L202.6 234.12 L202.6 234.42 Z" stroke="rgb(0, 0, 0)" stroke-width="0" fill-rule="evenodd" stroke-linejoin="miter" fill="rgb(0, 0, 0)" shape-rendering="geometricPrecision" /></g><g id="Solid"><path d="M210.36 229.86 L210.36 229.86 L210.1 229.71 L209.84 229.56 L214.59 221.35 L214.76 221.65 L214.93 221.95 Z" stroke="rgb(0, 0, 0)" stroke-width="0" fill-rule="evenodd" stroke-linejoin="miter" fill="rgb(0, 0, 0)" shape-rendering="geometricPrecision" /></g><g id="Solid"><path d="M214.93 221.95 L214.93 221.95 L214.76 221.65 L214.59 221.35 L229.01 221.35 L229.16 221.65 L229.01 221.95 Z" stroke="rgb(0, 0, 0)" stroke-width="0" fill-rule="evenodd" stroke-linejoin="miter" fill="rgb(0, 0, 0)" shape-rendering="geometricPrecision" /></g><g><text xml:space="preserve" text-anchor="start" text-rendering="geometricPrecision"><tspan x="247.72" y="232.75" font-family="Arial" font-size="10" fill="rgb(0, 0, 0)">N</tspan></text></g><g><text xml:space="preserve" text-anchor="start" text-rendering="geometricPrecision"><tspan x="247.72" y="218.35" font-family="Arial" font-size="10" fill="rgb(0, 0, 0)">N</tspan></text></g><g><text xml:space="preserve" text-anchor="start" text-rendering="geometricPrecision"><tspan x="234.03" y="213.9" font-family="Arial" font-size="10" fill="rgb(0, 0, 0)">N</tspan></text></g><g id="Solid"><path d="M229.01 221.95 L229.01 221.95 L229.16 221.65 L229.53 221.65 L237.74 232.95 L237.63 233.3 L237.52 233.65 Z" stroke="rgb(0, 0, 0)" stroke-width="0" fill-rule="evenodd" stroke-linejoin="miter" fill="rgb(0, 0, 0)" shape-rendering="geometricPrecision" /><line x1="232.37" y1="221.65" x2="238.62" y2="230.25" stroke="rgb(0, 0, 0)" stroke-width="0.6" shape-rendering="auto" /></g><g id="Solid"><path d="M237.52 233.65 L237.52 233.65 L237.63 233.3 L237.74 232.95 L246.89 229.98 L246.98 230.26 L247.07 230.55 Z" stroke="rgb(0, 0, 0)" stroke-width="0" fill-rule="evenodd" stroke-linejoin="miter" fill="rgb(0, 0, 0)" shape-rendering="geometricPrecision" /></g><g id="Solid"><path d="M251.62 224 L251.62 224 L251.32 224 L251.02 224 L251.02 217.7 L251.32 217.7 L251.62 217.7 Z" stroke="rgb(0, 0, 0)" stroke-width="0" fill-rule="evenodd" stroke-linejoin="miter" fill="rgb(0, 0, 0)" shape-rendering="geometricPrecision" /></g><g id="Solid"><path d="M247.07 212.75 L247.07 212.75 L246.98 213.04 L246.89 213.32 L241.93 211.71 L242.02 211.43 L242.11 211.14 Z" stroke="rgb(0, 0, 0)" stroke-width="0" fill-rule="evenodd" stroke-linejoin="miter" fill="rgb(0, 0, 0)" shape-rendering="geometricPrecision" /><line x1="246.4" y1="214.81" x2="241.45" y2="213.2" stroke="rgb(0, 0, 0)" stroke-width="0.6" shape-rendering="auto" /></g><g id="Solid"><path d="M233.62 215.01 L233.62 215.01 L233.86 215.19 L234.1 215.36 L229.53 221.65 L229.16 221.65 L229.01 221.35 Z" stroke="rgb(0, 0, 0)" stroke-width="0" fill-rule="evenodd" stroke-linejoin="miter" fill="rgb(0, 0, 0)" shape-rendering="geometricPrecision" /></g><g id="Solid"><path d="M255.74 226.65 L255.74 226.65 L255.59 226.39 L255.44 226.13 L263.79 221.3 L263.79 221.65 L263.79 222 Z" stroke="rgb(0, 0, 0)" stroke-width="0" fill-rule="evenodd" stroke-linejoin="miter" fill="rgb(0, 0, 0)" shape-rendering="geometricPrecision" /></g><g id="Solid"><path d="M263.79 222 L263.79 222 L263.79 221.65 L263.79 221.3 L276.26 228.5 L276.26 228.85 L276.26 229.2 Z" stroke="rgb(0, 0, 0)" stroke-width="0" fill-rule="evenodd" stroke-linejoin="miter" fill="rgb(0, 0, 0)" shape-rendering="geometricPrecision" /></g><g id="Solid"><path d="M276.26 229.2 L276.26 229.2 L276.26 228.85 L276.26 228.5 L288.73 221.3 L288.73 221.65 L288.73 222 Z" stroke="rgb(0, 0, 0)" stroke-width="0" fill-rule="evenodd" stroke-linejoin="miter" fill="rgb(0, 0, 0)" shape-rendering="geometricPrecision" /></g><g id="Solid"><path d="M288.73 222 L288.73 222 L288.73 221.65 L288.73 221.3 L301.21 228.5 L301.21 228.85 L301.21 229.2 Z" stroke="rgb(0, 0, 0)" stroke-width="0" fill-rule="evenodd" stroke-linejoin="miter" fill="rgb(0, 0, 0)" shape-rendering="geometricPrecision" /></g><g id="Solid"><path d="M301.21 229.2 L301.21 229.2 L301.21 228.85 L301.21 228.5 L313.68 221.3 L313.68 221.65 L313.68 222 Z" stroke="rgb(0, 0, 0)" stroke-width="0" fill-rule="evenodd" stroke-linejoin="miter" fill="rgb(0, 0, 0)" shape-rendering="geometricPrecision" /></g><g id="Solid"><path d="M313.68 222 L313.68 222 L313.68 221.65 L313.68 221.3 L326.15 228.5 L326.15 228.85 L326.15 229.2 Z" stroke="rgb(0, 0, 0)" stroke-width="0" fill-rule="evenodd" stroke-linejoin="miter" fill="rgb(0, 0, 0)" shape-rendering="geometricPrecision" /></g><g id="Solid"><path d="M326.15 229.2 L326.15 229.2 L326.15 228.85 L326.15 228.5 L338.62 221.3 L338.62 221.65 L338.62 222 Z" stroke="rgb(0, 0, 0)" stroke-width="0" fill-rule="evenodd" stroke-linejoin="miter" fill="rgb(0, 0, 0)" shape-rendering="geometricPrecision" /></g><g id="Solid"><path d="M338.62 222 L338.62 222 L338.62 221.65 L338.62 221.3 L351.09 228.5 L351.09 228.85 L351.09 229.2 Z" stroke="rgb(0, 0, 0)" stroke-width="0" fill-rule="evenodd" stroke-linejoin="miter" fill="rgb(0, 0, 0)" shape-rendering="geometricPrecision" /></g><g id="Solid"><path d="M351.09 229.2 L351.09 229.2 L351.09 228.85 L351.09 228.5 L363.56 221.3 L363.56 221.65 L363.56 222 Z" stroke="rgb(0, 0, 0)" stroke-width="0" fill-rule="evenodd" stroke-linejoin="miter" fill="rgb(0, 0, 0)" shape-rendering="geometricPrecision" /></g><g id="Solid"><path d="M363.56 222 L363.56 222 L363.56 221.65 L363.56 221.3 L376.03 228.5 L376.03 228.85 L376.03 229.2 Z" stroke="rgb(0, 0, 0)" stroke-width="0" fill-rule="evenodd" stroke-linejoin="miter" fill="rgb(0, 0, 0)" shape-rendering="geometricPrecision" /></g><g><text xml:space="preserve" text-anchor="start" text-rendering="geometricPrecision"><tspan x="372.13" y="247.15" font-family="Arial" font-size="10" fill="rgb(0, 0, 0)">O</tspan></text></g><g id="Solid"><line x1="377.33" y1="228.85" x2="377.33" y2="238.3" stroke="rgb(0, 0, 0)" stroke-width="0.6" shape-rendering="auto" /><path d="M375.03 228.62 L375.03 228.62 L374.43 228.27 L374.43 238.3 L375.03 238.3 Z" stroke="rgb(0, 0, 0)" stroke-width="0" fill-rule="evenodd" stroke-linejoin="miter" fill="rgb(0, 0, 0)" shape-rendering="geometricPrecision" /><path d="M377.63 228.27 L377.63 228.27 L377.03 228.62 L377.03 238.3 L377.63 238.3 Z" stroke="rgb(0, 0, 0)" stroke-width="0" fill-rule="evenodd" stroke-linejoin="miter" fill="rgb(0, 0, 0)" shape-rendering="geometricPrecision" /></g><g><text xml:space="preserve" text-anchor="start" text-rendering="geometricPrecision"><tspan x="384.6" y="225.55" font-family="Arial" font-size="10" fill="rgb(0, 0, 0)">O</tspan></text></g><g id="Solid"><path d="M376.03 229.2 L376.03 229.2 L376.03 228.85 L376.03 228.5 L383.76 224.04 L383.91 224.3 L384.06 224.56 Z" stroke="rgb(0, 0, 0)" stroke-width="0" fill-rule="evenodd" stroke-linejoin="miter" fill="rgb(0, 0, 0)" shape-rendering="geometricPrecision" /></g><g><text xml:space="preserve" text-anchor="start" text-rendering="geometricPrecision"><tspan x="409.66" y="233.03" font-family="Arial" font-weight="bold" font-size="16.75" fill="rgb(255, 0, 0)">CTA</tspan></text></g><g id="Charge7567"><line x1="401.53" y1="218.93" x2="407.73" y2="218.93" stroke="rgb(255, 0, 0)" stroke-width="0.48" shape-rendering="auto" /><line x1="404.63" y1="215.83" x2="404.63" y2="222.03" stroke="rgb(255, 0, 0)" stroke-width="0.48" shape-rendering="auto" /></g><g id="Charge7569"><line x1="393.2" y1="217.71" x2="397.14" y2="217.71" stroke="rgb(0, 0, 0)" stroke-width="0.48" shape-rendering="auto" /></g></g></g></svg>