<?xml version="1.0"?><svg xmlns="http://www.w3.org/2000/svg" xmlns:xlink="http://www.w3.org/1999/xlink" viewBox="232.3 153.67 101.82 44.57" preserveAspectRatio="xMidYMid" width="100%" height="100%"><clipPath id="52"><rect x="0.3" y="0.3" width="539.4" height="719.15" /></clipPath><g id="drawing"><rect x="232.3" y="153.67" width="100%" height="100%" fill="rgb(255, 255, 255)" /><g id="page" clip-path="url(#52)"><g><text xml:space="preserve" text-anchor="start" text-rendering="geometricPrecision"><tspan x="267.71" y="183.72" font-family="Arial" font-size="10" fill="rgb(0, 0, 0)">O</tspan></text></g><g id="Solid"><path d="M276.24 177.5 L276.24 177.5 L276.09 177.24 L275.94 176.98 L284.08 172.27 L284.08 172.62 L284.08 172.97 Z" stroke="rgb(0, 0, 0)" stroke-width="0" fill-rule="evenodd" stroke-linejoin="miter" fill="rgb(0, 0, 0)" shape-rendering="geometricPrecision" /></g><g id="Solid"><path d="M284.08 172.97 L284.08 172.97 L284.08 172.62 L284.08 172.27 L296.55 179.47 L296.55 179.82 L296.55 180.17 Z" stroke="rgb(0, 0, 0)" stroke-width="0" fill-rule="evenodd" stroke-linejoin="miter" fill="rgb(0, 0, 0)" shape-rendering="geometricPrecision" /></g><g id="Solid"><path d="M296.55 180.17 L296.55 180.17 L296.55 179.82 L296.55 179.47 L309.03 172.27 L309.03 172.62 L309.03 172.97 Z" stroke="rgb(0, 0, 0)" stroke-width="0" fill-rule="evenodd" stroke-linejoin="miter" fill="rgb(0, 0, 0)" shape-rendering="geometricPrecision" /></g><g id="Solid"><path d="M309.03 172.97 L309.03 172.97 L309.03 172.62 L309.03 172.27 L321.5 179.47 L321.5 179.82 L321.5 180.17 Z" stroke="rgb(0, 0, 0)" stroke-width="0" fill-rule="evenodd" stroke-linejoin="miter" fill="rgb(0, 0, 0)" shape-rendering="geometricPrecision" /></g><g><text xml:space="preserve" text-anchor="start" text-rendering="geometricPrecision"><tspan x="280.18" y="162.12" font-family="Arial" font-size="10" fill="rgb(0, 0, 0)">O</tspan></text></g><g id="Solid"><line x1="282.78" y1="172.62" x2="282.78" y2="163.9" stroke="rgb(0, 0, 0)" stroke-width="0.6" shape-rendering="auto" /><path d="M285.08 172.85 L285.08 172.85 L285.68 173.2 L285.68 163.9 L285.08 163.9 Z" stroke="rgb(0, 0, 0)" stroke-width="0" fill-rule="evenodd" stroke-linejoin="miter" fill="rgb(0, 0, 0)" shape-rendering="geometricPrecision" /><path d="M282.48 173.2 L282.48 173.2 L283.08 172.85 L283.08 163.9 L282.48 163.9 Z" stroke="rgb(0, 0, 0)" stroke-width="0" fill-rule="evenodd" stroke-linejoin="miter" fill="rgb(0, 0, 0)" shape-rendering="geometricPrecision" /></g><g id="Solid"><path d="M321.5 180.17 L321.5 180.17 L321.5 179.82 L321.5 179.47 L333.82 172.36 L333.97 172.62 L334.12 172.88 Z" stroke="rgb(0, 0, 0)" stroke-width="0" fill-rule="evenodd" stroke-linejoin="miter" fill="rgb(0, 0, 0)" shape-rendering="geometricPrecision" /></g><g><text xml:space="preserve" text-anchor="start" text-rendering="geometricPrecision"><tspan x="317.6" y="198.12" font-family="Arial" font-size="10" fill="rgb(0, 0, 0)">O</tspan></text></g><g id="Solid"><line x1="322.8" y1="179.82" x2="322.8" y2="189.3" stroke="rgb(0, 0, 0)" stroke-width="0.6" shape-rendering="auto" /><path d="M320.5 179.59 L320.5 179.59 L319.9 179.24 L319.9 189.3 L320.5 189.3 Z" stroke="rgb(0, 0, 0)" stroke-width="0" fill-rule="evenodd" stroke-linejoin="miter" fill="rgb(0, 0, 0)" shape-rendering="geometricPrecision" /><path d="M323.1 179.24 L323.1 179.24 L322.5 179.59 L322.5 189.3 L323.1 189.3 Z" stroke="rgb(0, 0, 0)" stroke-width="0" fill-rule="evenodd" stroke-linejoin="miter" fill="rgb(0, 0, 0)" shape-rendering="geometricPrecision" /></g><g id="Solid"><path d="M267.36 177.02 L267.36 177.02 L267.21 177.28 L267.06 177.54 L259.14 172.97 L259.14 172.62 L259.14 172.27 Z" stroke="rgb(0, 0, 0)" stroke-width="0" fill-rule="evenodd" stroke-linejoin="miter" fill="rgb(0, 0, 0)" shape-rendering="geometricPrecision" /></g><g id="Solid"><path d="M259.14 172.27 L259.14 172.27 L259.14 172.62 L259.14 172.97 L246.82 180.08 L246.67 179.82 L246.52 179.56 Z" stroke="rgb(0, 0, 0)" stroke-width="0" fill-rule="evenodd" stroke-linejoin="miter" fill="rgb(0, 0, 0)" shape-rendering="geometricPrecision" /></g><g id="Solid"><path d="M246.52 179.56 L246.52 179.56 L246.67 179.82 L246.82 180.08 L234.35 187.28 L234.2 187.02 L234.05 186.76 Z" stroke="rgb(0, 0, 0)" stroke-width="0" fill-rule="evenodd" stroke-linejoin="miter" fill="rgb(0, 0, 0)" shape-rendering="geometricPrecision" /><line x1="245.37" y1="177.58" x2="232.9" y2="184.78" stroke="rgb(0, 0, 0)" stroke-width="0.6" shape-rendering="auto" /><line x1="247.97" y1="182.06" x2="235.5" y2="189.26" stroke="rgb(0, 0, 0)" stroke-width="0.6" shape-rendering="auto" /></g></g></g></svg>